# xmcd
# 
# Track frame offsets:
#     150
#     18955
#     38412
#     55745
#     68590
#     84410
#     93772
#     119027
#     132562
#     146810
#     163370
#     184602
# 
# Disc length: 2592
# 
# Revision: 2
# Processed by: cddbd v1.5.2PL0 Copyright (c) Steve Scherf et al.
# Submitted via: BonkEnc v1.0.5
# 
DISCID=9f0a1e0c
DTITLE=I Solisti Veneti, Ugo Orlandi, Dorina Frati  - Vivaldi A. - Concerti per mandolini
DYEAR=1984
DGENRE=Classical
TTITLE0=Concerto RV532 per 2 mandolini, archi e clavicembalo - I Allegro
TTITLE1=Concerto RV532 per 2 mandolini, archi e clavicembalo - II Andante
TTITLE2=Concerto RV532 per 2 mandolini, archi e clavicembalo - III Allegro
TTITLE3=Concerto RV425 per mandolino, archi e clavicembalo - I Allegro
TTITLE4=Concerto RV425 per mandolino, archi e clavicembalo - II Largo
TTITLE5=Concerto RV425 per mandolino, archi e clavicembalo - III (Allegro)
TTITLE6=Concerto RV558 per 2 mandolini, archi e clavicembalo - I Allegro molto
TTITLE7=Concerto RV558 per 2 mandolini, archi e clavicembalo - II Andante molto
TTITLE8=Concerto RV558 per 2 mandolini, archi e clavicembalo - III Allegro
TTITLE9=Concerto RV93 per mandolino, archi e clavicembalo - I (Allegro giusto)
TTITLE10=Concerto RV93 per mandolino, archi e clavicembalo - II Largo
TTITLE11=Concerto RV93 per mandolino, archi e clavicembalo - III Allegro
EXTD=YEAR: 1984
EXTT0=
EXTT1=
EXTT2=
EXTT3=
EXTT4=
EXTT5=
EXTT6=
EXTT7=
EXTT8=
EXTT9=
EXTT10=
EXTT11=
PLAYORDER=
